<svg width="20" height="21" viewBox="0 0 20 21" fill="none" xmlns="http://www.w3.org/2000/svg">
<path d="M20 10.5C20 16.0228 15.5228 20.5 10 20.5C4.47715 20.5 0 16.0228 0 10.5C0 4.97715 4.47715 0.5 10 0.5C15.5228 0.5 20 4.97715 20 10.5Z" fill="#0052B5"/>
<path d="M7.5 6V0.815044C7.90721 0.710236 8.32445 0.630432 8.75 0.577367C9.15949 0.526304 9.57667 0.5 10 0.5C10.4233 0.5 10.8405 0.526304 11.25 0.577367C11.6755 0.630432 12.0928 0.710236 12.5 0.815044V7.375L16.75 3.12174C17.2081 3.5411 17.8764 4.37756 18.25 4.875L15 8H19.685C19.7898 8.40721 19.8696 8.82445 19.9226 9.25C19.9737 9.65949 20 10.0767 20 10.5C20 10.9233 19.9737 11.3405 19.9226 11.75C19.8696 12.1756 19.7898 12.5928 19.685 13H14.25L18.0007 16.5C17.4632 17.2156 16.8319 17.8568 16.125 18.4053L12.5 14.75V20.185C12.0928 20.2898 11.6755 20.3696 11.25 20.4226C10.8405 20.4737 10.4233 20.5 10 20.5C9.57667 20.5 9.15949 20.4737 8.75 20.4226C8.32445 20.3696 7.9072 20.2898 7.5 20.185L7.5 13.75L3.375 17.9908C2.81557 17.4956 2.31202 16.9388 1.875 16.3309L5.5 13H0.315044C0.210236 12.5928 0.130433 12.1756 0.0773678 11.75C0.0263044 11.3405 0 10.9233 0 10.5C0 10.0767 0.0263042 9.65949 0.0773672 9.25C0.130432 8.82445 0.210236 8.40721 0.315044 8H5.625L2 4.49902C2.55483 3.76055 3.20952 3.1014 3.94404 2.54161L7.5 6Z" fill="white"/>
<path d="M7.5 8L2.93623 3.42164C2.69491 3.66247 2.46583 3.91556 2.25 4.1799L6.25 8H7.5Z" fill="#D90026"/>
<path d="M12.5 8L17.0638 3.42164C17.3051 3.66247 17.5342 3.91556 17.75 4.1799L13.75 8H12.5Z" fill="#D90026"/>
<path d="M12.5 13.0858L17.0638 17.6642C17.3051 17.4234 17.5342 17.1703 17.75 16.9059L13.75 13.0858H12.5Z" fill="#D90026"/>
<path d="M7.5 13.0858L2.93623 17.6642C2.69491 17.4234 2.46583 17.1703 2.25 16.9059L6.25 13.0858H7.5Z" fill="#D90026"/>
<path d="M0.0773672 9.25C0.0263042 9.65949 0 10.0767 0 10.5C0 10.9233 0.0263044 11.3405 0.0773678 11.75H8.75V20.4226C9.15949 20.4737 9.57667 20.5 10 20.5C10.4233 20.5 10.8405 20.4737 11.25 20.4226V11.75H19.9226C19.9737 11.3405 20 10.9233 20 10.5C20 10.0767 19.9737 9.65949 19.9226 9.25H11.25V0.577367C10.7607 0.503767 10.5098 0.5 10 0.5C9.57667 0.5 9.15949 0.526304 8.75 0.577367V9.25H0.0773672Z" fill="#D90026"/>
</svg>
