<svg xmlns="http://www.w3.org/2000/svg" width="117" height="139" viewBox="0 0 117 139" fill="none">
  <g opacity="0.8">
    <mask id="mask0_11028_2320" style="mask-type:luminance" maskUnits="userSpaceOnUse" x="0" y="2" width="117" height="135">
      <path d="M12.8942 2.63501L116.038 13.4755L103.146 136.133L0.00253296 125.292L12.8942 2.63501Z" fill="white"/>
    </mask>
    <g mask="url(#mask0_11028_2320)">
      <path d="M56.1146 82.1492C73.512 83.9778 89.0977 71.3567 90.9262 53.9594C92.7548 36.562 80.1337 20.9763 62.7364 19.1478C45.339 17.3192 29.7533 29.9403 27.9248 47.3376C26.0962 64.735 38.7173 80.3207 56.1146 82.1492Z" fill="#F7F6F0"/>
      <path d="M54.0533 125.9C75.2996 128.133 93.73 118.461 95.2187 104.297C96.7075 90.1326 80.6907 76.8399 59.4444 74.6068C38.1981 72.3737 19.7676 82.0459 18.2789 96.2101C16.7902 110.374 32.8069 123.667 54.0533 125.9Z" fill="#F7F6F0"/>
      <path d="M31.7562 95.8296C31.0565 95.6616 30.346 95.5419 29.6298 95.4713L29.1292 95.4243L29.155 95.4271L27.3706 95.2393L26.8391 100.294L28.8299 100.503C29.8059 100.678 30.8054 100.678 31.7809 100.503L31.7175 100.512C32.1794 100.383 32.5962 100.128 32.9212 99.7757L32.9268 99.7712C33.2695 99.3493 33.4685 98.8289 33.4947 98.286C33.5209 97.743 33.373 97.2059 33.0725 96.7529L33.077 96.7591C32.7683 96.2982 32.2991 95.9688 31.7607 95.8352L31.7506 95.8341L31.7562 95.8296ZM42.5154 104.685L47.4044 105.199L45.6553 98.3288L42.5154 104.685Z" fill="url(#paint0_linear_11028_2320)"/>
      <path d="M107.41 12.5692L22.0536 3.59787C16.9947 3.06585 12.4672 6.69802 11.9402 11.7115L0.956288 116.222C0.429318 121.235 4.10185 125.729 9.16132 126.261L94.5231 135.233C99.5826 135.765 104.109 132.132 104.636 127.119L115.621 22.6097C116.148 17.5956 112.47 13.1018 107.41 12.5692ZM65.1042 22.1775C65.4714 22.2571 65.889 22.3008 66.2562 22.381C67.4386 22.6178 68.5192 23.2131 69.3513 24.0858L69.3418 24.0802C71.0837 25.9524 72.4684 28.1275 73.4275 30.498L73.4724 30.6163C73.9724 31.7644 74.4495 33.1272 74.829 34.5259L74.8789 34.7479C71.6308 34.841 67.799 34.7379 63.9421 34.4256L63.8182 34.4127L65.1042 22.1775ZM73.0648 66.444C69.0271 65.4268 64.9294 64.6648 60.7959 64.1624L60.6928 64.1517L61.7327 54.257L75.7602 55.7314C75.1856 59.6607 74.2309 63.3372 72.9252 66.8275L73.0469 66.4631L73.0648 66.444ZM60.232 68.5368C64.1085 69.0088 67.9539 69.7079 71.7485 70.6307L71.249 70.5213C70.5174 72.009 69.6768 73.4406 68.7341 74.8044L68.8462 74.63C67.4189 76.7909 65.5964 78.6628 63.4745 80.1475L63.447 80.1649C62.4632 80.8431 61.2922 81.197 60.0974 81.1773L60.0716 81.1745C59.685 81.1825 59.2981 81.1694 58.9129 81.1353L58.9022 81.1342L60.232 68.5368ZM71.8253 76.6482C72.8473 75.2108 73.862 73.4937 74.7393 71.6947L74.8492 71.4424C76.7233 71.9699 78.6238 72.5883 80.4962 73.2762L80.5377 73.2806C80.0729 73.733 79.5667 74.1344 79.1104 74.505C76.2784 76.7953 73.0473 78.5422 69.5801 79.6575L69.3861 79.7147C70.2567 78.8094 71.0456 77.8288 71.7435 76.7844L71.8124 76.6729L71.8253 76.6482ZM89.6184 57.1783C88.7082 61.8536 86.684 66.2405 83.7174 69.9669L83.8021 69.8514L83.3149 69.6765C81.1018 68.8416 78.8621 68.0788 76.5994 67.3892C77.8417 64.1046 78.8424 60.2409 79.4361 56.2264L79.4535 56.1143L89.6184 57.1783ZM63.3607 38.7669C67.6942 39.1302 72.0445 39.2474 76.3903 39.1184L75.8112 39.1246C76.3847 42.5488 76.5933 46.4669 76.3354 50.4544L76.3298 50.557L62.3023 49.0826L63.3607 38.7669ZM79.4765 38.9261C81.8405 38.7608 84.1099 38.4984 86.3927 38.1133L86.9006 38.0426C89.0359 42.1317 90.2244 46.8968 90.133 51.8896L90.1269 51.9972L79.9311 50.9253C80.2254 46.7949 80.0528 42.6445 79.4165 38.5528L79.4641 38.9452L79.4765 38.9261ZM84.3526 33.9558C82.4381 34.2148 80.4923 34.4234 78.5907 34.5545C78.1255 32.6628 77.5168 30.8093 76.7699 29.0101L76.8517 29.2249C76.327 27.9701 75.7198 26.7515 75.0342 25.577L75.0914 25.6813C78.3086 27.5221 81.1647 29.932 83.5207 32.7937C83.7707 33.1917 84.0712 33.5595 84.3627 33.962L84.3526 33.9558ZM56.9547 22.7728C57.9403 22.0975 59.1101 21.7422 60.3048 21.7553L60.3306 21.7581C60.6754 21.7481 61.0813 21.7598 61.4888 21.7974L61.4995 21.7985L60.218 33.9928C56.3846 33.5214 52.5821 32.8265 48.8298 31.9118L49.3186 32.0206C50.0127 30.6618 50.7968 29.351 51.6659 28.0969L51.5538 28.2713C53.0364 26.0711 54.7997 24.2429 56.8437 22.7869L56.8655 22.774L56.9547 22.7728ZM40.8855 63.641C38.476 63.8423 36.1035 64.094 33.8414 64.4814L33.3285 64.5514C31.2177 60.3692 30.167 55.7323 30.2687 51.0487L30.2743 50.9461L40.47 52.0174C40.1499 56.1536 40.3131 60.1546 40.9174 64.0318L40.8726 63.6601L40.8855 63.641ZM35.794 68.6242C37.7522 68.3316 39.7222 68.1253 41.6989 68.0048C42.2477 70.2276 42.8835 72.1129 43.6509 73.9405L43.5696 73.7252C44.1555 75.0942 44.7374 76.2558 45.386 77.3731L45.3299 77.2688C42.1125 75.428 39.2562 73.0181 36.9001 70.1564C36.5357 69.658 36.1702 69.1652 35.8097 68.6259L35.794 68.6242ZM45.432 67.808C48.7827 67.6796 52.661 67.7878 56.5701 68.1522L56.6217 68.1573L55.297 80.7602C54.3741 80.6087 53.4585 80.4161 52.5528 80.1828C52.0204 79.7701 51.5152 79.3234 51.0403 78.8458L51.0593 78.8632C49.3192 76.9893 47.9346 74.8144 46.9731 72.4448L46.9282 72.3265C46.3435 70.947 45.8601 69.5268 45.4819 68.0771L45.4247 67.8282L45.432 67.808ZM57.0892 63.7576C52.5988 63.3736 48.2451 63.2721 43.9514 63.4414L44.5154 63.433C43.9497 59.8111 43.7886 56.1375 44.0349 52.4799L44.04 52.3824L58.1291 53.8629L57.0892 63.7576ZM47.5096 36.1394C51.5178 37.1675 55.5928 37.9153 59.705 38.3773L59.7566 38.3829L58.6729 48.6913L44.5832 47.2102C45.2021 43.157 46.2252 39.3785 47.6183 35.7996L47.4905 36.1685L47.5096 36.1394ZM51.0078 23.14C50.1643 24.0745 49.3767 25.0581 48.6493 26.0855L48.5439 26.2447C47.5154 27.7076 46.6085 29.2524 45.8322 30.8635L45.7347 31.0962C43.8797 30.5584 42.0418 29.9637 40.2234 29.3129L40.1819 29.3084C40.5434 28.9784 40.9128 28.6571 41.2896 28.3447C44.1303 26.0907 47.3489 24.3593 50.7953 23.2314L50.9943 23.1748L51.0078 23.14ZM37.3693 32.9551C39.5052 33.7635 41.6922 34.4895 43.9654 35.1886C42.5483 38.913 41.5519 42.7841 40.9948 46.7298L40.9791 46.8312L30.7833 45.7599C31.7093 40.9498 33.8337 36.4509 36.9601 32.6799L36.8816 32.7802L37.3693 32.9551ZM34.6947 103.051C34.0854 103.377 33.4261 103.6 32.7438 103.709L32.7012 103.715C31.5985 103.771 30.4924 103.739 29.3947 103.621L28.879 103.561L28.9053 103.564L26.5435 103.316L25.8354 110.052L22.1892 109.668L24.0667 91.8064L29.9093 92.4208C31.3985 92.5077 32.8726 92.7666 34.3023 93.1922L34.1856 93.1597C35.1908 93.5548 36.0403 94.2661 36.6058 95.1863L36.6153 95.1975C37.1857 96.3061 37.4184 97.5577 37.2847 98.7972C37.1861 99.7644 36.8669 100.696 36.3518 101.521L36.372 101.481C35.9698 102.151 35.3931 102.7 34.7037 103.068L34.6868 103.076L34.6947 103.051ZM49.4504 112.529L48.2995 108.3L41.0794 107.541L39.1565 111.447L35.3046 111.042L44.1958 93.9171L48.0478 94.3219L53.3802 112.942L49.4504 112.529ZM68.469 112.161C67.7973 113.001 66.8801 113.611 65.8453 113.906L65.8083 113.912C64.7017 114.219 63.4482 114.336 62.1593 114.2L61.7832 114.156L61.7989 114.157C59.8932 114.077 58.0781 113.322 56.6777 112.027L56.6968 112.045C55.5379 110.732 54.9246 109.026 54.9825 107.276L54.9841 107.256L58.5412 107.299C58.551 108.295 58.9094 109.256 59.5542 110.015C60.2841 110.624 61.1757 111.008 62.1201 111.12C63.0645 111.232 64.0212 111.068 64.8738 110.646L64.8519 110.655C65.1452 110.483 65.396 110.247 65.5858 109.965C65.7751 109.684 65.8984 109.364 65.9462 109.028L65.9507 108.982C65.9965 108.606 65.9008 108.225 65.6822 107.915C65.3438 107.532 64.9285 107.225 64.4634 107.012L64.4382 107.004C64.0424 106.798 63.0731 106.447 61.6324 105.919C60.1689 105.487 58.8223 104.729 57.6941 103.701L57.7177 103.724C57.2467 103.238 56.8874 102.656 56.6648 102.017C56.4441 101.379 56.3664 100.701 56.4372 100.03L56.4507 99.9021C56.5431 98.9976 56.9153 98.1444 57.5153 97.4613L57.5035 97.4758C58.1394 96.7427 58.9672 96.2016 59.8939 95.9134L59.9264 95.9061C60.9523 95.6163 62.1162 95.5109 63.3125 95.637L63.5648 95.6684L63.5541 95.6673C65.3992 95.7141 67.1625 96.4385 68.5076 97.7023L68.4886 97.6844C68.9976 98.2226 69.3839 98.8616 69.6216 99.5602C69.8594 100.257 69.9433 100.998 69.8677 101.731L69.8581 101.818L66.1957 101.593C66.1901 100.83 65.9101 100.094 65.4069 99.5204C64.8466 99.046 64.1561 98.7519 63.4257 98.6767L63.141 98.657L63.151 98.6581C62.2766 98.5064 61.3765 98.6479 60.5908 99.0607L60.607 99.0523C60.4157 99.1588 60.2524 99.3095 60.1309 99.4917C60.0093 99.6739 59.9329 99.8824 59.9079 100.1L59.9063 100.115C59.8853 100.32 59.9129 100.528 59.9868 100.721C60.0607 100.913 60.1789 101.086 60.3318 101.225L60.3368 101.225C61.2936 101.924 62.3703 102.442 63.5138 102.753L63.5698 102.763C65.0364 103.243 66.3056 103.821 67.4896 104.514L67.3707 104.45C68.1269 104.952 68.7421 105.639 69.1579 106.446L69.1663 106.468C69.5519 107.306 69.7032 108.232 69.6042 109.149L69.5739 109.384L69.575 109.374L69.5605 109.511C69.459 110.505 69.0625 111.446 68.4219 112.213L68.4342 112.193L68.469 112.161ZM85.2501 113.925C84.5783 114.765 83.6612 115.375 82.6265 115.67L82.5895 115.676C81.4829 115.983 80.2299 116.1 78.9405 115.964L78.5649 115.919L78.58 115.921C76.6745 115.841 74.8594 115.086 73.4595 113.791L73.4785 113.809C72.3193 112.496 71.7057 110.79 71.7636 109.04L71.7659 109.02L75.3224 109.063C75.3333 110.059 75.6916 111.019 76.3354 111.779C77.0658 112.388 77.9573 112.772 78.9017 112.884C79.8461 112.996 80.8028 112.832 81.6555 112.41L81.6337 112.418C81.9269 112.246 82.1777 112.011 82.3675 111.729C82.5567 111.448 82.6797 111.127 82.7274 110.792L82.7325 110.746C82.7777 110.369 82.6821 109.989 82.4639 109.679C82.1254 109.296 81.7099 108.988 81.2446 108.776L81.2194 108.768C80.8242 108.561 79.8543 108.211 78.4135 107.683C76.95 107.251 75.6035 106.493 74.4753 105.465L74.4988 105.489C74.0281 105.003 73.669 104.42 73.4466 103.781C73.2257 103.143 73.148 102.465 73.219 101.794L73.2324 101.666C73.325 100.761 73.6971 99.9085 74.297 99.2255L74.2852 99.2395C74.9197 98.5048 75.7481 97.9633 76.6757 97.6771L76.7076 97.6698C77.7341 97.38 78.9024 97.2757 80.0937 97.4007L80.346 97.4327L80.3359 97.4315C82.1809 97.4782 83.9442 98.2024 85.2894 99.466L85.2703 99.4486C85.7779 99.9853 86.1643 100.625 86.4033 101.324C86.6409 102.021 86.7247 102.762 86.6488 103.494L86.6399 103.581L82.9769 103.357C82.9718 102.594 82.692 101.858 82.1887 101.285C81.6283 100.81 80.9378 100.516 80.2075 100.441L79.9227 100.421L79.9328 100.422C79.0581 100.27 78.1577 100.412 77.3719 100.825L77.3888 100.816C77.1973 100.922 77.034 101.073 76.9123 101.255C76.7906 101.437 76.7141 101.646 76.6891 101.864L76.6874 101.879C76.6667 102.085 76.6944 102.292 76.7684 102.485C76.8424 102.677 76.9606 102.85 77.1135 102.988L77.1185 102.989C78.0234 103.658 79.1093 104.19 80.2899 104.516L80.3454 104.532C81.8125 105.012 83.0812 105.589 84.2652 106.282L84.1469 106.218C84.903 106.721 85.5182 107.408 85.9341 108.215L85.9419 108.236C86.3276 109.074 86.4789 110.001 86.3798 110.917L86.3501 111.152L86.3512 111.142L86.3299 111.444C86.2246 112.386 85.8308 113.272 85.2025 113.982L85.2148 113.968L85.2501 113.925Z" fill="url(#paint1_linear_11028_2320)"/>
    </g>
  </g>
  <defs>
    <linearGradient id="paint0_linear_11028_2320" x1="37.7962" y1="96.3296" x2="36.9794" y2="104.104" gradientUnits="userSpaceOnUse">
      <stop stop-color="#A18363"/>
      <stop offset="1" stop-color="#DBC183"/>
    </linearGradient>
    <linearGradient id="paint1_linear_11028_2320" x1="64.7348" y1="8.08384" x2="51.8419" y2="130.747" gradientUnits="userSpaceOnUse">
      <stop stop-color="#9E8061"/>
      <stop offset="1" stop-color="#DDC284"/>
    </linearGradient>
  </defs>
</svg>