<svg width="24" height="25" viewBox="0 0 24 25" fill="none" xmlns="http://www.w3.org/2000/svg">
<path d="M12 22.5C6.47715 22.5 2 18.0228 2 12.5C2 6.97715 6.47715 2.5 12 2.5C17.5228 2.5 22 6.97715 22 12.5C22 18.0228 17.5228 22.5 12 22.5Z" fill="#0400FF"/>
<path d="M12 22.5C6.47715 22.5 2 18.0228 2 12.5C2 6.97715 6.47715 2.5 12 2.5C17.5228 2.5 22 6.97715 22 12.5C22 18.0228 17.5228 22.5 12 22.5Z" fill="black" fill-opacity="0.2"/>
<path d="M21.3715 9C19.9527 5.20333 16.2926 2.5 12.0011 2.5C7.70954 2.5 4.04941 5.20333 2.63068 9L21.3715 9Z" fill="#FEFEFE"/>
<path d="M2.62854 16C4.04728 19.7967 7.70741 22.5 11.9989 22.5C16.2905 22.5 19.9506 19.7967 21.3693 16L2.62854 16Z" fill="#D90026"/>
</svg>
