<svg xmlns="http://www.w3.org/2000/svg" width="24" height="25" viewBox="0 0 24 25" fill="none">
<path d="M7.05291 16.8972C9.03304 19.2553 11.4167 21.1119 14.1373 22.4256C15.1731 22.9146 16.5583 23.4948 18.1017 23.5943C18.1974 23.5984 18.2889 23.6025 18.3846 23.6025C19.4204 23.6025 20.2524 23.2461 20.9304 22.5126C20.9346 22.5085 20.9429 22.5002 20.9471 22.4919C21.1883 22.2018 21.4629 21.9407 21.7499 21.663C21.9455 21.4766 22.1451 21.2818 22.3365 21.0829C23.2226 20.1628 23.2226 18.9942 22.3282 18.1032L19.828 15.6125C19.4037 15.1732 18.8962 14.9411 18.3638 14.9411C17.8313 14.9411 17.3196 15.1732 16.8828 15.6083L15.3936 17.092C15.2563 17.0132 15.1149 16.9428 14.9817 16.8765C14.8153 16.7936 14.6614 16.7148 14.5241 16.6278C13.168 15.77 11.9367 14.651 10.7594 13.213C10.1645 12.4629 9.76518 11.833 9.48647 11.1906C9.8775 10.8383 10.2436 10.4695 10.5972 10.109C10.722 9.98049 10.8509 9.85202 10.9799 9.72355C11.4292 9.27597 11.6704 8.75795 11.6704 8.23163C11.6704 7.70532 11.4333 7.18729 10.9799 6.73971L9.74022 5.50474C9.59463 5.35969 9.45735 5.21878 9.31591 5.07374C9.04136 4.79193 8.75432 4.50183 8.47145 4.24075C8.04297 3.82218 7.53962 3.60254 7.00715 3.60254C6.47884 3.60254 5.97133 3.82218 5.52622 4.24489L3.9704 5.79483C3.40465 6.35844 3.08434 7.04224 3.01778 7.83379C2.93874 8.82425 3.12178 9.87689 3.59601 11.1492C4.324 13.1177 5.42222 14.9453 7.05291 16.8972ZM4.0328 7.92081C4.08272 7.36963 4.29488 6.90963 4.69423 6.51178L6.24172 4.97013C6.483 4.73806 6.74924 4.61787 7.00715 4.61787C7.26091 4.61787 7.51882 4.73806 7.75594 4.97842C8.03465 5.23536 8.29673 5.50474 8.5796 5.79069C8.72104 5.93573 8.86664 6.08078 9.01224 6.22997L10.2519 7.46495C10.5098 7.72189 10.6429 7.98298 10.6429 8.23992C10.6429 8.49686 10.5098 8.75795 10.2519 9.01489C10.1229 9.14336 9.99398 9.27597 9.86502 9.40445C9.47815 9.794 9.11623 10.1628 8.71688 10.5151C8.70856 10.5234 8.7044 10.5275 8.69608 10.5358C8.35081 10.8798 8.40489 11.2072 8.48809 11.4558C8.49225 11.4683 8.49641 11.4766 8.50057 11.489C8.82088 12.2557 9.26599 12.9851 9.9607 13.8553C11.2087 15.3887 12.5232 16.5781 13.9709 17.494C14.1497 17.61 14.3411 17.7012 14.52 17.7923C14.6864 17.8752 14.8403 17.954 14.9776 18.041C14.9942 18.0493 15.0067 18.0576 15.0233 18.0659C15.1606 18.1363 15.2937 18.1695 15.4268 18.1695C15.7596 18.1695 15.976 17.9581 16.0467 17.8877L17.6025 16.3377C17.8438 16.0974 18.1058 15.9689 18.3638 15.9689C18.6799 15.9689 18.9378 16.1637 19.1001 16.3377L21.6085 18.8325C22.1077 19.3299 22.1035 19.8686 21.596 20.3949C21.4213 20.5814 21.2383 20.7596 21.0427 20.9461C20.7516 21.2279 20.4479 21.518 20.1733 21.8454C19.6949 22.3593 19.125 22.5996 18.3887 22.5996C18.318 22.5996 18.2431 22.5955 18.1724 22.5914C16.8079 22.5043 15.5392 21.9739 14.5865 21.5221C11.9991 20.2747 9.72774 18.5051 7.8433 16.259C6.29164 14.3982 5.2475 12.6659 4.55695 10.8093C4.12848 9.66968 3.96624 8.7538 4.0328 7.92081Z" fill="#F7F6F0"/>
</svg>