<svg width="28" height="28" viewBox="0 0 28 28" fill="none" xmlns="http://www.w3.org/2000/svg">
<path d="M23.8994 4.10047C21.2551 1.45622 17.7394 0 13.9999 0C13.9997 0 14 0 13.9998 0C10.2606 0 6.74461 1.45638 4.10047 4.10047C1.45627 6.74472 0 10.2604 0 14C0.000109375 16.3805 0.605937 18.7202 1.75503 20.7896L0.0302969 26.9587C-0.0494375 27.2441 0.0308438 27.5502 0.240297 27.7596C0.44975 27.9691 0.755781 28.0493 1.04125 27.9696L7.2106 26.2449C9.27976 27.3941 11.6193 27.9999 13.9999 28C17.7395 28 21.2552 26.5437 23.8995 23.8995C26.5438 21.2552 28 17.7395 28 13.9999C27.9999 10.2604 26.5436 6.74472 23.8994 4.10047ZM13.9999 26.3594C11.7935 26.3593 9.62768 25.7702 7.73648 24.6558C7.60911 24.5807 7.46517 24.5422 7.32003 24.5422C7.24598 24.5422 7.17172 24.5522 7.09915 24.5725L2.0026 25.9973L3.42743 20.901C3.48753 20.686 3.45745 20.456 3.3442 20.2637C2.22977 18.3722 1.64073 16.2063 1.64062 13.9999C1.64062 10.6986 2.92622 7.59495 5.26061 5.26055C7.595 2.92616 10.6987 1.64062 13.9999 1.64062C20.8147 1.64062 26.3592 7.18501 26.3594 13.9999C26.3594 20.8149 20.8149 26.3594 13.9999 26.3594Z" fill="#FEFEFE"/>
<path d="M20.0429 15.0489C19.5415 14.5474 18.8728 14.2713 18.1601 14.2713C17.4475 14.2713 16.7788 14.5474 16.2775 15.0489L15.8972 15.4291C15.8034 15.5228 15.6774 15.5745 15.5424 15.5745C15.4072 15.5745 15.2812 15.5228 15.1872 15.4289L12.5692 12.8109C12.4754 12.7172 12.4237 12.591 12.4237 12.4559C12.4237 12.3208 12.4753 12.1948 12.5689 12.1011L12.9493 11.7208C13.9875 10.6826 13.9875 8.99343 12.9494 7.9553L12.1886 7.19432C11.6871 6.693 11.0185 6.41699 10.3059 6.41699C9.59323 6.41699 8.92462 6.69305 8.42314 7.19454L7.85592 7.76187C6.65668 8.96111 6.22136 10.747 6.63004 12.7907C7.01466 14.7137 8.11404 16.6605 9.72574 18.2723C11.7568 20.3031 14.3435 21.5157 16.6453 21.5158H16.6458C18.0962 21.5158 19.3378 21.0409 20.2363 20.1425L20.8036 19.5752C21.8417 18.5371 21.8417 16.8478 20.8036 15.8095L20.0429 15.0489ZM19.6435 18.4151L19.0763 18.9824C18.4921 19.5665 17.6518 19.8752 16.6458 19.8752H16.6456C14.7691 19.8751 12.616 18.8422 10.8859 17.1123C9.5007 15.7269 8.56062 14.0779 8.2389 12.4689C7.94123 10.9805 8.21724 9.72088 9.01611 8.92195L9.58328 8.35468C9.77485 8.16316 10.0314 8.05767 10.3059 8.05767C10.5805 8.05767 10.8372 8.16316 11.0287 8.35457L11.7893 9.11538C12.1878 9.51389 12.1878 10.1622 11.7894 10.5607L11.409 10.941C11.0053 11.3446 10.7831 11.8827 10.7831 12.4562C10.7832 13.0295 11.0055 13.5676 11.4091 13.9711L14.0272 16.5891C14.4309 16.9929 14.969 17.2153 15.5424 17.2153C16.1157 17.2153 16.6537 16.993 17.0573 16.5894L17.4377 16.2091C17.6292 16.0175 17.8858 15.912 18.1602 15.912C18.4347 15.912 18.6913 16.0175 18.8829 16.2091L19.6435 16.9698C20.042 17.3682 20.042 18.0166 19.6435 18.4151Z" fill="#FEFEFE"/>
</svg>
