<svg width="21" height="21" viewBox="0 0 21 21" fill="none" xmlns="http://www.w3.org/2000/svg">
<g clip-path="url(#clip0_11216_15988)">
<path d="M0.500061 20.1025L1.91362 14.9695C1.0397 13.4628 0.581245 11.7565 0.586021 10.0122C0.586021 4.54646 5.05593 0.102539 10.543 0.102539C13.2078 0.102539 15.7102 1.13391 17.587 3.00653C19.4685 4.87916 20.5048 7.36965 20.5 10.017C20.5 15.4828 16.0301 19.9267 10.5383 19.9267H10.5335C8.86682 19.9267 7.2288 19.5084 5.77226 18.7195L0.500061 20.1025ZM6.02537 16.9276L6.32623 17.1082C7.59652 17.8592 9.05306 18.2537 10.5383 18.2584H10.543C15.1037 18.2584 18.8191 14.5655 18.8191 10.0217C18.8191 7.82117 17.9595 5.75368 16.3979 4.19475C14.8362 2.63581 12.7541 1.7803 10.543 1.7803C5.98239 1.77554 2.26701 5.46851 2.26701 10.0122C2.26701 11.5664 2.70159 13.0826 3.53253 14.3944L3.72833 14.7081L2.89261 17.7451L6.02537 16.9276Z" fill="#FEFEFE"/>
<path d="M0.848602 19.7558L2.21441 14.7986C1.36914 13.349 0.925011 11.6997 0.925011 10.0172C0.929787 4.74153 5.2421 0.449707 10.543 0.449707C13.117 0.449707 15.5286 1.44781 17.3433 3.25389C19.158 5.05997 20.1561 7.46492 20.1561 10.022C20.1561 15.2976 15.839 19.5894 10.543 19.5894H10.5382C8.92882 19.5894 7.34812 19.1855 5.94411 18.425L0.848602 19.7558Z" fill="url(#paint0_linear_11216_15988)"/>
<path d="M0.500061 20.1025L1.91362 14.9695C1.0397 13.4628 0.581245 11.7565 0.586021 10.0122C0.586021 4.54646 5.05593 0.102539 10.543 0.102539C13.2078 0.102539 15.7102 1.13391 17.587 3.00653C19.4685 4.87916 20.5048 7.36965 20.5 10.017C20.5 15.4828 16.0301 19.9267 10.5383 19.9267H10.5335C8.86682 19.9267 7.2288 19.5084 5.77226 18.7195L0.500061 20.1025ZM6.02537 16.9276L6.32623 17.1082C7.59652 17.8592 9.05306 18.2537 10.5383 18.2584H10.543C15.1037 18.2584 18.8191 14.5655 18.8191 10.0217C18.8191 7.82117 17.9595 5.75368 16.3979 4.19475C14.8362 2.63581 12.7541 1.7803 10.543 1.7803C5.98239 1.77554 2.26701 5.46851 2.26701 10.0122C2.26701 11.5664 2.70159 13.0826 3.53253 14.3944L3.72833 14.7081L2.89261 17.7451L6.02537 16.9276Z" fill="url(#paint1_linear_11216_15988)"/>
<path fill-rule="evenodd" clip-rule="evenodd" d="M8.05487 5.86757C7.86862 5.45407 7.67283 5.44456 7.49613 5.43981C7.35286 5.43506 7.18572 5.43506 7.01858 5.43506C6.85143 5.43506 6.584 5.49685 6.35478 5.74399C6.12555 5.99114 5.48563 6.59 5.48563 7.81148C5.48563 9.02821 6.37865 10.2069 6.50282 10.3733C6.62698 10.5396 8.22679 13.1204 10.7531 14.1138C12.8543 14.9408 13.2841 14.7744 13.7378 14.7316C14.1914 14.6889 15.2086 14.1328 15.4188 13.5529C15.6241 12.9731 15.6241 12.4788 15.562 12.3742C15.4999 12.2697 15.3328 12.2079 15.0845 12.0843C14.8361 11.9607 13.6136 11.3619 13.3844 11.2763C13.1552 11.1955 12.988 11.1527 12.8256 11.3999C12.6585 11.647 12.1809 12.2031 12.0377 12.3695C11.8944 12.5358 11.7464 12.5548 11.498 12.4313C11.2497 12.3077 10.4474 12.0463 9.49708 11.2003C8.75687 10.5444 8.25544 9.73164 8.11218 9.48449C7.96891 9.23734 8.09785 9.10426 8.22201 8.98069C8.33185 8.87137 8.47034 8.69076 8.59451 8.54818C8.71867 8.40559 8.76165 8.30103 8.84283 8.13468C8.92402 7.96833 8.88581 7.82574 8.82373 7.70217C8.76165 7.58335 8.27454 6.35711 8.05487 5.86757Z" fill="#FEFEFE"/>
</g>
<defs>
<linearGradient id="paint0_linear_11216_15988" x1="10.5019" y1="19.7548" x2="10.5019" y2="0.449032" gradientUnits="userSpaceOnUse">
<stop stop-color="#20B038"/>
<stop offset="1" stop-color="#60D66A"/>
</linearGradient>
<linearGradient id="paint1_linear_11216_15988" x1="10.502" y1="20.1007" x2="10.502" y2="0.102539" gradientUnits="userSpaceOnUse">
<stop stop-color="#F9F9F9"/>
<stop offset="1" stop-color="white"/>
</linearGradient>
<clipPath id="clip0_11216_15988">
<rect width="20" height="20" fill="white" transform="translate(0.5 0.102539)"/>
</clipPath>
</defs>
</svg>
