<svg xmlns="http://www.w3.org/2000/svg" width="24" height="25" viewBox="0 0 24 25" fill="none">
  <path d="M17.0546 14.4492C16.9358 14.3823 16.8011 14.3065 16.6388 14.2089C16.5483 14.1542 16.4344 14.0794 16.3138 14.0003C15.6944 13.5938 15.2252 13.306 14.8257 13.306C14.7321 13.306 14.6436 13.3219 14.563 13.353C14.213 13.4878 13.9256 13.8478 13.6477 14.196C13.5458 14.3235 13.4 14.5061 13.3116 14.5877C12.9607 14.524 12.2206 14.0655 11.4219 13.2668C10.6223 12.4672 10.1638 11.7263 10.1008 11.3762C10.1823 11.2874 10.3663 11.1406 10.4947 11.038C10.8415 10.7612 11.2002 10.4748 11.3357 10.126C11.5085 9.67769 11.1917 9.14158 10.6885 8.37498C10.6093 8.25433 10.5345 8.14037 10.4803 8.05052C10.3822 7.88762 10.3065 7.75286 10.2396 7.63408C9.96528 7.14648 9.78402 6.82422 9.10287 6.82422C8.6608 6.82422 8.03577 7.24197 7.61239 7.65625C6.99711 8.25845 6.6582 8.9537 6.6582 9.6153C6.65938 11.4122 7.66222 13.4717 9.40963 15.2678C9.41263 15.2708 9.41563 15.2716 9.41872 15.2746C11.2148 17.022 13.2754 18.0214 15.0723 18.0214H15.073C15.7337 18.0214 16.4292 17.6864 17.0313 17.0715C17.4459 16.6481 17.8642 16.0277 17.8642 15.5859C17.8643 14.9048 17.5422 14.7236 17.0546 14.4492ZM15.0725 17.0931C13.5419 17.092 11.6748 16.1644 10.0771 14.6117C8.5243 13.0139 7.59673 11.1467 7.59575 9.61623C7.59575 8.6905 8.79706 7.81033 9.11122 7.76209C9.17539 7.76237 9.20905 7.76617 9.22508 7.76889C9.26661 7.8167 9.34916 7.96342 9.42266 8.09406C9.48917 8.21228 9.572 8.35947 9.67747 8.53473C9.74122 8.64034 9.82072 8.76142 9.90486 8.88958C10.0641 9.1322 10.3842 9.61989 10.4382 9.82806C10.3479 9.9558 10.0679 10.1793 9.90988 10.3055C9.5053 10.6285 9.15589 10.9074 9.15589 11.3016C9.15688 12.2537 10.3833 13.554 10.7591 13.9299C11.135 14.3057 12.4353 15.5321 13.3894 15.533C13.781 15.5318 14.0588 15.1838 14.3804 14.7809C14.5073 14.6221 14.7321 14.3404 14.8604 14.2506C15.0683 14.3042 15.5566 14.6247 15.7994 14.7841C15.9276 14.8682 16.0486 14.9477 16.1549 15.0118C16.3295 15.1169 16.4767 15.1997 16.595 15.2663C16.7255 15.3398 16.8723 15.4224 16.9201 15.4639C16.9228 15.4799 16.9266 15.5135 16.9269 15.5777C16.8783 15.8915 15.9979 17.092 15.0725 17.0931Z" fill="#03DE70"/>
  <path d="M21.5812 12.6471C21.5483 10.1139 20.5315 7.7202 18.7182 5.90684C16.8714 4.06006 14.4336 3.04297 11.8539 3.04297C9.36369 3.04297 7.0341 4.00119 5.29419 5.74105C3.75022 7.28502 2.80297 9.34423 2.62677 11.5394C2.45966 13.6222 2.98986 15.7299 4.12204 17.502L2.576 21.681C2.51113 21.8564 2.55669 22.0536 2.69202 22.1828C2.78094 22.2677 2.89743 22.3124 3.01574 22.3124C3.07743 22.3124 3.13968 22.2946 3.19869 22.2695L7.22521 20.556C8.76233 21.5128 10.52 22.0058 12.3247 22.0058H12.3249C14.8147 22.0058 17.1443 21.059 18.884 19.3194C20.6562 17.5471 21.6141 15.1848 21.5812 12.6471ZM18.221 18.6679C16.6582 20.2306 14.5642 21.0912 12.3247 21.0911C10.6197 21.0911 8.96089 20.592 7.52755 19.6479C7.44983 19.5967 7.36002 19.5706 7.26969 19.5706C7.20768 19.5706 7.14543 19.5829 7.08669 19.6078L3.83188 20.9883L5.08344 17.6053C5.1358 17.4637 5.11677 17.3055 5.03235 17.1804C2.73191 13.7724 3.12083 9.24022 5.9571 6.404C7.51991 4.84119 9.6141 3.98047 11.8539 3.98047C14.1832 3.98047 16.3855 4.90002 18.0552 6.56975C19.6948 8.20925 20.614 10.3719 20.6437 12.6593C20.6734 14.942 19.813 17.0759 18.221 18.6679Z" fill="#03DE70"/>
</svg>