<svg width="255" height="70" viewBox="0 0 255 70" fill="none" xmlns="http://www.w3.org/2000/svg">
<g clip-path="url(#clip0_19069_70535)">
<path d="M73.555 21.457C71.3504 22.6643 67.2155 25.0483 63.04 28.1831C63.2737 29.4208 63.3956 30.6889 63.3956 31.9773C63.4159 32.3831 63.4261 32.7991 63.4261 33.215V42.4367C67.9775 40.6309 69.8062 38.3788 70.6291 36.857C72.3155 33.7324 72.163 32.3831 72.0208 31.957C72.2748 32.5759 73.0977 34.9295 72.0716 37.1512C70.8423 39.8092 68.2213 42.528 63.4261 44.3136V44.973C67.2359 45.328 71.3098 45.9773 75.4141 46.6875C75.4141 39.3527 75.4243 33.0121 75.4243 32.9005C75.4243 28.8527 74.7843 24.9976 73.555 21.457ZM69.8569 33.5802C69.4708 35.2136 68.4855 36.4817 67.3374 36.9991C67.053 37.1309 66.7685 37.0599 66.5755 36.8165C65.7831 35.8324 65.468 34.2599 65.8541 32.6266C66.2401 30.9933 67.2257 29.7353 68.3737 29.2078C68.6582 29.0759 68.9426 29.1469 69.1357 29.3904C69.9281 30.3744 70.2429 31.9469 69.8569 33.5802Z" fill="#FEFEFE"/>
<path d="M38.6554 0H35.1301C19.6066 0 7.59822 7.84206 2.56934 19.5594C4.65201 20.6551 8.56335 22.8362 12.6576 25.7783C15.4717 12.1029 26.7689 2.58699 38.1169 0.284087C38.6554 0.172493 39.2751 0 38.6554 0ZM11.3572 21.1623C11.1845 21.4159 10.9102 21.5174 10.6156 21.4058C9.42689 20.9899 8.3297 19.813 7.79126 18.2304C7.26297 16.6377 7.42553 15.0449 8.11637 14C8.28908 13.7464 8.56336 13.6449 8.85798 13.7565C10.0466 14.1725 11.1438 15.3493 11.6823 16.9319C12.2207 18.5145 12.048 20.1072 11.3572 21.1623Z" fill="#FEFEFE"/>
<path d="M25.1837 45.7434C25.1533 41.2695 22.1969 36.9071 18.3262 33.1028V47.1637C20.8457 46.139 23.1722 45.5709 25.1837 45.7434Z" fill="#FEFEFE"/>
<path d="M20.6334 18.8186C19.2822 22.5215 18.5608 26.478 18.3779 30.3838C23.3255 34.9085 27.3588 40.407 27.1759 46.2099C27.2471 46.2403 27.308 46.2606 27.3791 46.2911C28.5475 46.7983 29.5329 47.6302 30.3152 48.7867V39.7172C29.2078 37.8505 26.9727 33.9853 24.9002 29.7244C22.7871 25.3824 21.375 21.7505 20.6334 18.8186Z" fill="#FEFEFE"/>
<path d="M56.9828 30.5968C56.7288 28.2736 56.0583 26.062 55.0423 24.0635C55.0423 24.7229 55.022 25.362 54.9916 25.991C54.8493 28.9128 54.3922 31.5403 53.874 33.7519C54.7985 32.6968 55.8348 31.6519 56.9828 30.5968Z" fill="#FEFEFE"/>
<path d="M52.4423 45.1139L52.9299 45.0226C54.4437 44.7487 55.8254 44.4444 57.0953 44.14V33.2444C54.8704 35.456 52.9503 37.84 51.7108 40.3255C51.6499 40.4676 51.6092 40.5589 51.5889 40.5792H51.5787C50.7863 42.2328 50.2987 43.9271 50.2275 45.6314C50.7761 45.4691 51.3451 45.3168 51.9445 45.2053L52.0054 45.1951C52.1477 45.1748 52.3 45.1444 52.4423 45.1139Z" fill="#FEFEFE"/>
<path d="M59.625 20.0365C60.8949 21.8727 61.8804 23.8916 62.5204 26.0626C66.7366 22.9684 70.7495 20.6858 72.8322 19.5698C71.3387 16.0191 69.2256 12.8235 66.5435 10.0945C66.3607 14.1626 64.0443 17.4901 59.625 20.0365Z" fill="#FEFEFE"/>
<path d="M26.5883 48.1174C24.5259 47.2247 21.6407 47.8536 18.3389 49.3348V68.8943H30.3371V54.3668C29.6666 50.9784 28.4373 48.929 26.5883 48.1174ZM25.0542 57.2074C24.8307 57.4204 24.536 57.4407 24.2718 57.2784C23.2153 56.5885 22.4229 55.1986 22.2807 53.5247C22.1385 51.8507 22.6769 50.3392 23.6014 49.4871C23.8249 49.274 24.1194 49.2537 24.3836 49.4161C25.4402 50.1059 26.2327 51.4958 26.3749 53.1697C26.5172 54.8334 25.9787 56.3449 25.0542 57.2074Z" fill="#FEFEFE"/>
<path d="M64.4913 8.18719C60.6003 4.90023 55.7542 2.45529 50.0752 1.13645C49.4961 1.00457 48.5615 0.821974 47.7386 0.71038C47.0783 0.619076 46.3975 0.548039 45.7168 0.497314C49.9329 4.93064 52.3509 9.67847 53.6716 14.1929C55.4495 15.3799 57.0445 16.8104 58.3957 18.4235C64.2881 15.0858 64.8672 10.9771 64.4913 8.18719ZM60.9558 14.1626C60.8746 14.4568 60.6307 14.6293 60.326 14.6191C59.0662 14.5684 57.6744 13.777 56.6889 12.4176C55.7034 11.0581 55.3886 9.48577 55.7442 8.27852C55.8255 7.98432 56.0693 7.81184 56.3741 7.82199C57.6338 7.87271 59.0357 8.664 60.011 10.0234C60.9863 11.3828 61.3013 12.9554 60.9558 14.1626Z" fill="#FEFEFE"/>
<path d="M12.2827 28.0099C8.12752 24.9461 4.04349 22.6229 1.83891 21.446C0.6401 24.8345 0 28.507 0 32.3824V36.5519C0.253984 37.0389 0.528314 37.5156 0.853414 37.9924C3.20023 41.5229 6.94906 44.12 11.9983 45.7837C11.9983 41.3504 11.9983 36.7243 11.9983 32.3518C11.9983 30.8707 12.0998 29.4201 12.2827 28.0099ZM10.4946 29.1867C10.2305 30.4143 9.20439 31.6519 7.69065 32.3824C6.1769 33.1128 4.57172 33.1431 3.44403 32.5852C3.16973 32.4533 3.03771 32.1794 3.10883 31.8852C3.37297 30.6576 4.39901 29.4201 5.91276 28.6896C7.4265 27.9592 9.03167 27.9288 10.1594 28.4867C10.4337 28.6186 10.5556 28.8824 10.4946 29.1867Z" fill="#FEFEFE"/>
<path d="M11.9983 52.3787C10.0477 53.5758 8.03607 55.2599 6.04483 56.5889L5.21175 57.1468C5.21175 57.1468 9.71241 51.77 11.9983 50.4208C11.9983 49.5889 11.9983 48.7468 11.9983 47.8845C6.74588 46.2715 2.72271 43.7048 0 40.2251V68.8947H11.9983C11.9983 68.8947 11.9983 61.5092 11.9983 52.3787ZM1.54424 47.5599C1.59504 47.2555 1.80839 47.0526 2.11317 47.0323C3.36277 46.9309 4.8562 47.5396 5.99404 48.7671C7.13189 49.9947 7.63985 51.5164 7.43666 52.7642C7.38587 53.0686 7.17252 53.2715 6.86774 53.2918C5.60798 53.3932 4.1247 52.7845 2.98685 51.557C1.849 50.3193 1.34106 48.7976 1.54424 47.5599Z" fill="#FEFEFE"/>
<path d="M47.4857 49.2328C46.2259 50.2575 45.4437 51.6068 45.1084 53.3314V68.8937H57.0964V46.7271C53.0327 46.7981 49.6395 47.4879 47.4857 49.2328ZM52.6568 55.0256C51.7323 56.4256 50.3608 57.2676 49.1112 57.3691C48.8064 57.3894 48.5626 57.2271 48.461 56.943C48.0648 55.7459 48.3086 54.1633 49.2331 52.7633C50.1576 51.3633 51.5291 50.5213 52.7787 50.4198C53.0835 50.3995 53.3375 50.5618 53.4289 50.8459C53.8353 52.043 53.5813 53.6256 52.6568 55.0256Z" fill="#FEFEFE"/>
<path d="M63.4248 47.0115V68.8942H75.4027C75.4027 68.8942 75.4129 58.3941 75.4129 48.7463C71.3796 48.0361 67.2752 47.3767 63.4248 47.0115ZM71.5014 56.5578C71.4201 56.8521 71.1763 57.0245 70.8715 57.0144C69.6118 56.9636 68.2099 56.1723 67.2346 54.8129C66.2491 53.4535 65.9341 51.881 66.2896 50.6738C66.3709 50.3796 66.6148 50.2071 66.9196 50.2173C68.1794 50.268 69.5813 51.0594 70.5566 52.4188C71.542 53.7782 71.857 55.3506 71.5014 56.5578Z" fill="#FEFEFE"/>
<path d="M52.8787 20.6854C49.3331 16.2318 43.8572 13.3708 37.7108 13.3708C35.1811 13.3708 32.7631 13.8579 30.5483 14.7405C33.0069 11.8593 36.715 10.4289 40.7686 10.3478H40.7788C42.0487 10.3173 43.3491 10.4187 44.6495 10.652C46.9354 11.0274 49.1096 11.7376 51.1008 12.7217C49.4245 8.16657 46.6611 4.07815 42.831 0.466553C40.8499 0.588292 39.2346 1.00423 37.4262 1.60278C35.8718 2.12017 34.3378 2.75931 32.1332 4.13902C27.5919 6.95931 24.2901 10.9361 22.0449 15.4708C22.4107 20.6143 26.9113 29.684 30.3146 35.7304V32.7376C30.3146 30.455 31.3509 28.4158 32.9764 27.0665L37.7108 32.7376L42.4348 27.0665C44.0603 28.4158 45.0965 30.455 45.0965 32.7376V48.7869C45.4318 48.3912 45.7976 48.0158 46.2141 47.681C46.8237 47.194 47.4941 46.7679 48.2256 46.4129C48.1646 44.1708 48.7031 41.8782 49.8613 39.5347C50.3387 38.4593 52.6449 32.9303 52.9903 25.8085C53.0818 24.0534 53.0412 22.3492 52.8787 20.6854ZM36.3188 5.12304C37.0808 4.12884 38.5437 3.439 40.22 3.42885C41.8963 3.40856 43.3593 4.06802 44.1517 5.05208C44.3447 5.29556 44.3447 5.58972 44.1619 5.8332C43.3999 6.8274 41.937 7.5173 40.2607 7.52744C38.5844 7.53759 37.1113 6.88828 36.329 5.90422C36.136 5.67089 36.136 5.36652 36.3188 5.12304ZM32.8749 20.6246C32.6108 21.8521 31.5846 23.0898 30.0708 23.8202C28.5571 24.5506 26.952 24.581 25.8243 24.023C25.55 23.8911 25.4178 23.6172 25.4889 23.323C25.7531 22.0955 26.7792 20.8579 28.2929 20.1275C29.8067 19.397 31.4119 19.3666 32.5395 19.9246C32.8138 20.0564 32.946 20.3304 32.8749 20.6246ZM51.436 28.3144C51.3547 28.6086 51.1109 28.7811 50.8061 28.7709C49.5463 28.7202 48.1444 27.9288 47.1691 26.5694C46.1837 25.21 45.8686 23.6376 46.2242 22.4304C46.3156 22.1362 46.5494 21.9637 46.8542 21.9738C48.1139 22.0246 49.5057 22.8159 50.4911 24.1753C51.4664 25.5347 51.7814 27.1072 51.436 28.3144Z" fill="#FEFEFE"/>
<path d="M87.4219 40.5593C90.7237 38.5303 90.2665 33.4679 90.2665 31.1447V20.6752L92.8876 19.3665H93.2126V30.9723C93.2126 34.7665 92.593 36.694 89.9414 39.0476C88.8645 39.9911 87.879 40.8737 87.7165 41.036L87.4219 40.5593Z" fill="#FEFEFE"/>
<path d="M110.169 32.8388H98.679L97.6631 31.9866L97.7647 31.7228H107.254V23.8098C107.254 21.1011 106.106 20.5127 104.246 20.5127H102.966L99.5629 21.1721L99.7966 19.3765H106.014C108.27 19.4069 110.169 19.9649 110.169 24.0228V32.8388Z" fill="#FEFEFE"/>
<path d="M115.533 26.9954C115.533 22.6127 118.876 19.2446 123.681 19.2446C127.054 19.2446 131.991 21.791 131.991 27.249V32.8388C131.991 36.8562 129.695 40.1635 124.92 40.9142L124.697 40.4881C127.084 39.8287 129.055 38.5301 129.086 32.8388H123.681C119.861 32.849 115.533 31.9562 115.533 26.9954ZM129.086 31.733V26.1736C129.086 22.6127 126.993 20.3606 123.945 20.3606C120.308 20.3606 118.449 23.6983 118.449 27.3606C118.449 32.0374 120.511 31.7432 123.193 31.7432H129.086V31.733Z" fill="#FEFEFE"/>
<path d="M243.326 31.7336C241.131 30.5263 239.465 28.3045 239.465 25.1596C239.465 20.777 242.767 17.4089 247.816 17.4089C250.691 17.4089 253.343 18.4843 254.857 20.706L253.089 22.2379C251.677 19.7828 249.848 18.5146 247.654 18.5146C244.22 18.5146 242.35 21.8523 242.35 25.5146C242.35 30.2219 244.443 31.7233 247.166 31.7233H254.857L254.572 32.0175L253.526 32.9001H220.731C220.538 32.9001 220.406 32.7075 220.406 32.5046V32.048C220.406 31.8552 220.538 31.7233 220.731 31.7233H243.326V31.7336Z" fill="#FEFEFE"/>
<path d="M223.486 31.7235H212.94H211.854H207.943H207.363H202.223L200.769 31.6626C199.418 31.5713 198.637 30.6582 198.637 28.9539V11.4031L195.63 12.5596L195.64 28.8829C195.64 31.9467 197.672 32.9103 200.415 32.9103H201.949H202.223H207.363H207.943H211.854H212.94H223.486" fill="#FEFEFE"/>
<path d="M186.24 11.7302L184.085 13.8829L186.241 16.0343L188.396 13.8817L186.24 11.7302Z" fill="#FEFEFE"/>
<path d="M247.507 11.7283L245.353 13.8809L247.508 16.0324L249.663 13.8797L247.507 11.7283Z" fill="#FEFEFE"/>
<path d="M192.875 26.2852C192.865 23.82 191.758 22.0954 190.274 20.949C188.822 19.833 187.155 19.3359 185.652 19.3359C181.334 19.3359 178.337 22.2983 178.337 26.1533C178.337 28.7098 179.678 30.5867 181.456 31.7127H149.261C147.91 31.6113 147.097 30.7084 147.097 29.0041V23.5258V20.9794L144.09 22.1258V28.8722C144.09 31.9359 146.152 32.8997 148.865 32.8997H178.682V32.9099H187.298H188.466C191.239 32.9099 192.855 31.4287 192.855 28.72V26.2852H192.875ZM189.523 30.6983C189.147 31.3678 188.456 31.7229 187.521 31.7229H185.083C184.087 31.7127 183.203 31.5707 182.543 30.8301C181.791 29.9881 181.324 28.5983 181.324 26.4678C181.324 23.2417 182.878 20.3098 185.875 20.3098C188.385 20.3098 189.898 22.2983 189.898 25.433C189.898 26.3765 189.939 27.3098 189.919 28.2533C189.909 29.0548 189.929 29.978 189.523 30.6983Z" fill="#FEFEFE"/>
<path d="M91.744 11.7854L89.5889 13.9374L91.744 16.0895L93.8991 13.9374L91.744 11.7854Z" fill="#FEFEFE"/>
<path d="M187.521 46.312H189.451C188.537 48.4526 187.308 51.7091 185.753 56.0714L181.182 69.0772H181.06L174.974 51.6381L168.757 69.0772H168.635L160.619 46.312H164.002L170.027 63.6903L176.244 46.312H176.366L182.421 63.6903L185.154 55.8888C186.444 52.3584 187.237 49.1627 187.521 46.312Z" fill="#FEFEFE"/>
<path d="M188.141 60.5656C188.141 58.0192 188.943 55.9496 190.548 54.3569C192.154 52.7641 194.175 51.9729 196.624 51.9729C199.021 51.9729 200.992 52.7438 202.526 54.2858C204.06 55.8279 204.832 57.8569 204.832 60.3829C204.832 62.909 204.03 64.9685 202.425 66.5613C200.82 68.1541 198.798 68.9453 196.349 68.9453C193.952 68.9453 191.981 68.1844 190.447 66.6525C188.913 65.1206 188.141 63.0916 188.141 60.5656ZM201.663 60.5656C201.663 58.1409 201.175 56.1728 200.2 54.6612C199.225 53.1496 197.975 52.399 196.441 52.399C194.886 52.399 193.647 53.1293 192.712 54.6003C191.778 56.0714 191.31 57.9989 191.31 60.3829C191.31 62.8076 191.798 64.7757 192.773 66.2771C193.749 67.7786 194.998 68.5293 196.532 68.5293C198.087 68.5293 199.326 67.8091 200.261 66.3584C201.195 64.8975 201.663 62.9699 201.663 60.5656Z" fill="#FEFEFE"/>
<path d="M206.479 60.5656C206.479 58.0192 207.281 55.9496 208.886 54.3569C210.491 52.7641 212.513 51.9729 214.962 51.9729C217.359 51.9729 219.33 52.7438 220.864 54.2858C222.398 55.8279 223.17 57.8569 223.17 60.3829C223.17 62.909 222.368 64.9685 220.763 66.5613C219.157 68.1541 217.136 68.9453 214.687 68.9453C212.29 68.9453 210.319 68.1844 208.785 66.6525C207.24 65.1206 206.479 63.0916 206.479 60.5656ZM219.99 60.5656C219.99 58.1409 219.503 56.1728 218.528 54.6612C217.552 53.1496 216.303 52.399 214.769 52.399C213.214 52.399 211.975 53.1293 211.04 54.6003C210.105 56.0714 209.638 57.9989 209.638 60.3829C209.638 62.8076 210.126 64.7757 211.101 66.2771C212.076 67.7786 213.326 68.5293 214.86 68.5293C216.414 68.5293 217.654 67.8091 218.588 66.3584C219.523 64.8975 219.99 62.9699 219.99 60.5656Z" fill="#FEFEFE"/>
<path d="M241.032 68.0012L238.269 68.8534L237.456 66.3476C235.821 68.0824 233.972 68.9447 231.899 68.9447C229.887 68.9447 228.211 68.1738 226.85 66.6216C225.488 65.0694 224.818 63.1114 224.818 60.7476C224.777 58.2621 225.549 56.1621 227.144 54.4577C228.739 52.7534 230.639 51.9215 232.834 51.9621C234.612 51.9621 236.135 52.5201 237.405 53.6462V46.8693L240.23 45.9563H240.352V65.7999L241.032 68.0012ZM237.395 65.6375V55.5737C236.999 54.6404 236.42 53.8896 235.658 53.3215C234.896 52.7635 234.043 52.4796 233.108 52.4796C231.554 52.4796 230.314 53.1999 229.379 54.6405C228.445 56.081 227.977 58.0085 227.977 60.4433C227.977 62.8273 228.414 64.6738 229.278 65.9825C230.152 67.2912 231.34 67.9404 232.854 67.9404C234.51 67.9404 236.024 67.1693 237.395 65.6375Z" fill="#FEFEFE"/>
<path d="M242.676 67.474L243.143 65.9117C244.657 67.6465 246.557 68.5088 248.863 68.5088C250.082 68.5088 251.067 68.2146 251.799 67.6363C252.53 67.0581 252.896 66.3074 252.896 65.3842C252.835 64.5117 252.53 63.8421 251.982 63.3958C251.433 62.9494 250.458 62.432 249.046 61.8334L247.776 61.3161C247.004 61.0117 246.201 60.6363 245.348 60.1798C243.773 59.2363 242.981 57.9885 242.981 56.4161C242.981 55.1074 243.519 54.0421 244.586 53.2001C245.652 52.3682 247.044 51.9421 248.761 51.9421C250.834 51.9421 252.622 52.3682 254.136 53.2305L253.699 54.6711C252.144 53.1392 250.407 52.3784 248.477 52.3784C247.4 52.3784 246.547 52.6421 245.917 53.1595C245.287 53.6769 244.972 54.3465 244.972 55.1581C244.972 55.7465 245.155 56.2639 245.531 56.69C245.886 57.0755 246.262 57.3798 246.668 57.6132C247.075 57.8363 247.806 58.161 248.863 58.5871L250.102 59.1045C250.996 59.4494 251.779 59.8146 252.459 60.2103C254.075 61.1436 254.887 62.4421 254.887 64.0958C254.887 65.5262 254.318 66.6827 253.181 67.5856C252.043 68.4885 250.498 68.9349 248.548 68.9349C247.491 68.9349 246.414 68.803 245.327 68.5392C244.24 68.2856 243.356 67.9305 242.676 67.474Z" fill="#FEFEFE"/>
<path d="M99.7342 59.3379H104.672V66.5206C103.209 67.6771 101.39 68.2553 99.2465 68.2553C99.1957 68.2553 99.1551 68.2553 99.1043 68.2553C96.727 68.2553 94.7459 67.2611 93.222 65.3132C91.6676 63.3147 90.8955 60.7277 90.9362 57.6335C90.9362 54.4379 91.6473 51.8409 93.0493 49.9336C94.4411 48.0365 96.3308 47.0727 98.6573 47.0727C100.059 47.0727 101.37 47.4582 102.538 48.1988C103.717 48.9496 104.712 50.0147 105.515 51.3639L105.576 51.4554L107.212 49.9843L107.151 49.9133C106.236 48.838 105.037 47.9756 103.585 47.3467C102.132 46.7177 100.567 46.4031 98.9214 46.4031C98.8605 46.4031 98.8097 46.4031 98.7487 46.4031C95.5587 46.4031 92.8461 47.4684 90.6822 49.5684C88.4776 51.709 87.3804 54.4886 87.421 57.8263C87.421 61.2451 88.4979 63.9843 90.6111 65.9727C92.7242 67.951 95.579 68.9554 99.1043 68.9554C102.284 68.9554 105.149 68.0423 107.618 66.2264L107.659 66.1958V58.5974H99.3075L99.7342 59.3379Z" fill="#FEFEFE"/>
<path d="M120.306 52.531C118.243 52.531 116.323 53.3729 114.586 55.0265V46.3933L111.609 47.5397V68.8642H114.586V55.8382C116.019 54.4687 117.532 53.7787 119.087 53.7787C120.529 53.7787 121.464 54.2353 121.86 55.1281C122.267 56.0208 122.48 57.0556 122.48 58.1817V68.8642H125.457V58.2426C125.467 54.4484 123.729 52.531 120.306 52.531Z" fill="#FEFEFE"/>
<path d="M142.059 67.7883C141.439 67.7883 141.053 67.6564 140.921 67.3927C140.769 67.1086 140.697 66.5101 140.697 65.6173V57.9985C140.697 54.2043 138.808 52.2869 135.069 52.2869C133.891 52.2869 132.834 52.4898 131.92 52.8753C131.005 53.2608 130.081 53.8999 129.167 54.7521L129.106 54.8129L129.481 55.2796L129.553 55.2187C130.965 54.0419 132.448 53.4535 133.962 53.4535C135.272 53.4535 136.237 53.8492 136.806 54.6405C137.385 55.4318 137.68 56.6593 137.68 58.2825V59.8956L136.624 59.9767L134.835 60.1492C132.722 60.3724 131.046 60.9202 129.847 61.7927C128.638 62.6651 128.019 63.8115 128.019 65.1811C128.019 66.297 128.415 67.2101 129.197 67.8999C129.979 68.5796 131.016 68.9347 132.275 68.9347C134.267 68.9347 136.095 68.1941 137.721 66.7434C137.893 68.1434 138.706 68.8535 140.149 68.8535C141.012 68.8535 141.866 68.5999 142.668 68.0927L142.709 68.0724V67.7376L142.607 67.7477C142.201 67.7883 142.089 67.7883 142.059 67.7883ZM137.68 65.9419C136.481 67.0883 135.181 67.6767 133.84 67.6767C132.997 67.6767 132.306 67.4129 131.788 66.9057C131.27 66.3883 131.005 65.6477 131.005 64.7043C131.005 63.4361 131.554 62.4724 132.641 61.8535C133.728 61.2245 135.425 60.7782 137.68 60.5245V65.9419Z" fill="#FEFEFE"/>
<path d="M150.338 46.3726C148.713 46.3726 147.422 46.8797 146.498 47.8739C145.584 48.8681 145.116 50.2885 145.116 52.0842V54.7927H142.82V55.6247H145.116V68.8638H148.123V55.6247H152.675L153.203 54.7927H148.123V51.9319C148.123 48.9898 149.261 47.5594 151.608 47.5594C152.644 47.5594 153.701 47.803 154.758 48.2697L154.829 48.3001L155.123 47.8029L155.052 47.7624C153.538 46.8392 151.954 46.3726 150.338 46.3726Z" fill="#FEFEFE"/>
</g>
<defs>
<clipPath id="clip0_19069_70535">
<rect width="255" height="70" fill="white"/>
</clipPath>
</defs>
</svg>
