<svg width="184" height="60" viewBox="0 0 184 60" fill="none" xmlns="http://www.w3.org/2000/svg">
<g clip-path="url(#clip0_17300_19184)">
<path d="M8.56216 39.924C6.20297 37.3743 5.02441 34.2514 5.02441 30.5531C5.02441 26.8507 6.20297 23.7154 8.56216 21.1491C10.9193 18.5829 13.9147 17.2998 17.5484 17.2998C20.8858 17.2998 23.6351 18.3387 25.8003 20.4124V18.0283H34.4861V43.02H25.8921V40.1972H25.8003C23.6351 42.5647 20.8858 43.7485 17.5484 43.7485C13.9147 43.7485 10.9193 42.4736 8.56216 39.924ZM15.9547 26.3147C14.8241 27.4198 14.2609 28.8313 14.2609 30.5531C14.2609 32.2708 14.7991 33.674 15.8796 34.7667C16.958 35.8553 18.3827 36.3975 20.1516 36.3975C21.8537 36.3975 23.2513 35.847 24.3485 34.7419C25.4436 33.6326 25.9922 32.2336 25.9922 30.5448C25.9922 28.8292 25.4269 27.4198 24.2984 26.3147C23.1679 25.2054 21.787 24.6508 20.1516 24.6508C18.4829 24.6508 17.0832 25.2054 15.9547 26.3147Z" fill="#FEFEFE"/>
<path d="M35.7617 43.02V18.0283H44.4559V21.6293H44.556C44.6165 21.503 44.7187 21.3437 44.8647 21.1491C45.0149 20.9505 45.3341 20.609 45.8243 20.1227C46.3186 19.6384 46.8443 19.2017 47.4012 18.8147C47.9561 18.4236 48.6778 18.0738 49.5623 17.7634C50.4467 17.455 51.3436 17.2998 52.2573 17.2998C53.2085 17.2998 54.143 17.4302 55.0608 17.6889C55.9786 17.9496 56.6482 18.2083 57.0716 18.467L57.7641 18.8561L54.1263 26.1657C53.0458 25.2551 51.5418 24.7998 49.6123 24.7998C48.561 24.7998 47.6599 25.0295 46.9089 25.4869C46.158 25.9401 45.6261 26.4927 45.3153 27.1425C45.0024 27.7882 44.7813 28.3408 44.6478 28.7982C44.5185 29.2514 44.4559 29.6073 44.4559 29.866V43.02H35.7617Z" fill="#FEFEFE"/>
<path d="M57.3161 39.9237C54.9569 37.374 53.7783 34.2511 53.7783 30.5528C53.7783 26.8504 54.9569 23.7151 57.3161 21.1489C59.6732 18.5826 62.6686 17.2995 66.3023 17.2995C69.6398 17.2995 72.389 18.3384 74.5542 20.4121V1.12402H83.24V43.0197H74.646V40.1969H74.5542C72.389 42.5644 69.6398 43.7482 66.3023 43.7482C62.6686 43.7482 59.6732 42.4734 57.3161 39.9237ZM64.7086 26.3144C63.578 27.4196 63.0148 28.831 63.0148 30.5528C63.0148 32.2705 63.553 33.6737 64.6335 34.7664C65.7119 35.855 67.1366 36.3972 68.9055 36.3972C70.6076 36.3972 72.0052 35.8467 73.1024 34.7416C74.1975 33.6323 74.7461 32.2333 74.7461 30.5446C74.7461 28.8289 74.1808 27.4196 73.0523 26.3144C71.9218 25.2051 70.5409 24.6505 68.9055 24.6505C67.2368 24.6505 65.8371 25.2051 64.7086 26.3144Z" fill="#FEFEFE"/>
<path d="M86.234 39.924C83.8748 37.3743 82.6963 34.2514 82.6963 30.5531C82.6963 26.8507 83.8748 23.7154 86.234 21.1491C88.5911 18.5829 91.5865 17.2998 95.2202 17.2998C98.5577 17.2998 101.307 18.3387 103.472 20.4124V18.0283H112.158V43.02H103.564V40.1972H103.472C101.307 42.5647 98.5577 43.7485 95.2202 43.7485C91.5865 43.7485 88.5911 42.4736 86.234 39.924ZM93.6266 26.3147C92.496 27.4198 91.9328 28.8313 91.9328 30.5531C91.9328 32.2708 92.471 33.674 93.5515 34.7667C94.6299 35.8553 96.0546 36.3975 97.8235 36.3975C99.5256 36.3975 100.923 35.847 102.02 34.7419C103.115 33.6326 103.664 32.2336 103.664 30.5448C103.664 28.8292 103.099 27.4198 101.97 26.3147C100.84 25.2054 99.4588 24.6508 97.8235 24.6508C96.1547 24.6508 94.7551 25.2054 93.6266 26.3147Z" fill="#FEFEFE"/>
<path d="M113.434 43.02V18.0283H122.128V20.6607H122.228C124.485 18.4215 126.892 17.2998 129.445 17.2998C130.684 17.2998 131.919 17.4633 133.15 17.7882C134.378 18.109 135.557 18.6119 136.688 19.2948C137.816 19.9799 138.732 20.9484 139.433 22.2005C140.138 23.4484 140.492 24.8991 140.492 26.5548V43.02H131.798V28.8892C131.798 27.5937 131.381 26.4596 130.547 25.4869C129.712 24.5101 128.623 24.0217 127.284 24.0217C125.97 24.0217 124.783 24.5266 123.721 25.5366C122.658 26.5424 122.128 27.6599 122.128 28.8892V43.02H113.434Z" fill="#FEFEFE"/>
<path d="M140.144 49.1624L147.261 45.7021C148.567 47.842 150.842 48.914 154.086 48.914C155.592 48.914 156.992 48.4339 158.283 47.4736C159.578 46.5175 160.227 45.0502 160.227 43.0697V41.2154C158.686 42.9041 155.934 43.7485 151.975 43.7485C148.341 43.7485 145.346 42.4736 142.989 39.924C140.63 37.3743 139.451 34.2514 139.451 30.5531C139.451 26.8507 140.63 23.7154 142.989 21.1491C145.346 18.5829 148.341 17.2998 151.975 17.2998C155.217 17.2998 157.918 18.2911 160.077 20.2717H160.227V18.0283H168.913V43.6988C168.913 47.7592 167.553 50.8946 164.833 53.1028C162.117 55.3089 158.535 56.414 154.086 56.414C146.881 56.414 142.234 53.9968 140.144 49.1624ZM150.381 26.3147C149.251 27.4198 148.688 28.8313 148.688 30.5531C148.688 32.2708 149.226 33.674 150.306 34.7667C151.385 35.8553 152.809 36.3975 154.578 36.3975C156.28 36.3975 157.678 35.847 158.775 34.7419C159.87 33.6326 160.419 32.2336 160.419 30.5448C160.419 28.8292 159.854 27.4198 158.725 26.3147C157.595 25.2054 156.214 24.6508 154.578 24.6508C152.91 24.6508 151.51 25.2054 150.381 26.3147Z" fill="#FEFEFE"/>
<path d="M175.788 32.5977C177.357 32.5977 178.688 33.1419 179.785 34.2285C180.886 35.317 181.437 36.6374 181.437 38.1937C181.437 39.7231 180.886 41.031 179.785 42.1175C178.688 43.204 177.357 43.7483 175.788 43.7483C174.247 43.7483 172.928 43.204 171.833 42.1175C170.736 41.031 170.189 39.7231 170.189 38.1937C170.189 36.6374 170.736 35.317 171.833 34.2285C172.928 33.1419 174.247 32.5977 175.788 32.5977Z" fill="#FEFEFE"/>
<mask id="mask0_17300_19184" style="mask-type:luminance" maskUnits="userSpaceOnUse" x="0" y="9" width="41" height="42">
<path d="M0.234375 9.51953H40.6848V50.844H0.234375V9.51953Z" fill="white"/>
</mask>
<g mask="url(#mask0_17300_19184)">
<path d="M40.7981 29.8651H34.8157C24.5758 27.6673 22.298 25.3991 20.0827 15.2232V9.51953H19.3255V15.2832C17.1124 25.4094 14.8241 27.6714 4.60303 29.8651H0.239258V30.6164H4.60303C14.8241 32.8101 17.1124 35.0742 19.3255 45.1983V50.8565H20.0827V45.2584C22.298 35.0824 24.5758 32.8163 34.8157 30.6164H40.7981V29.8651Z" fill="#0A1A33"/>
</g>
<path d="M28.3027 48.1045H29.4959C29.7462 48.1045 29.9757 48.1417 30.1884 48.2121C30.4054 48.2845 30.5889 48.3859 30.7391 48.5184C30.8935 48.6508 31.0144 48.8081 31.0979 48.9903C31.1813 49.1682 31.223 49.3607 31.223 49.5697C31.223 49.7477 31.1938 49.9091 31.1396 50.0581C31.0833 50.2071 31.0061 50.3437 30.906 50.4638C30.8059 50.5859 30.6849 50.6914 30.5472 50.7783C30.4074 50.8673 30.2552 50.9335 30.0883 50.977L31.5234 53.0879H30.8976L29.4959 51.035H28.8284V53.0879H28.3027V48.1045ZM29.4959 50.5548C29.8568 50.5548 30.1467 50.4679 30.3636 50.2899C30.5847 50.1078 30.6974 49.8657 30.6974 49.5614C30.6974 49.2634 30.5847 49.0296 30.3636 48.8578C30.1467 48.6819 29.8568 48.5929 29.4959 48.5929H28.8284V50.5548H29.4959Z" fill="#FEFEFE"/>
<path d="M34.7461 48.1045H37.3326V48.5929H35.2717V50.2651H36.8404V50.7452H35.2717V52.6078H37.366V53.0879H34.7461V48.1045Z" fill="#FEFEFE"/>
<path d="M42.1968 47.9561H42.347L44.2577 53.0885H43.682L43.2064 51.7806H41.3041L40.8285 53.0885H40.2861L42.1968 47.9561ZM43.0396 51.3004L42.2553 49.1398L41.4793 51.3004H43.0396Z" fill="#FEFEFE"/>
<path d="M47.4053 48.1045H47.9309V52.6078H49.9501V53.0879H47.4053V48.1045Z" fill="#FEFEFE"/>
<path d="M57.1064 48.1045H59.693V48.5929H57.6321V50.2651H59.2007V50.7452H57.6321V52.6078H59.7264V53.0879H57.1064V48.1045Z" fill="#FEFEFE"/>
<path d="M64.3015 53.1627C63.9615 53.1627 63.6465 53.0841 63.3586 52.9227C63.0749 52.7633 62.8371 52.5315 62.6494 52.2273L63.0499 51.8962C63.4003 52.426 63.8196 52.6909 64.3098 52.6909C64.6039 52.6909 64.8396 52.6122 65.019 52.4508C65.2026 52.2914 65.2944 52.0783 65.2944 51.8134C65.2944 51.5878 65.213 51.3953 65.0524 51.2339C64.8897 51.0684 64.629 50.9152 64.2681 50.7703C63.8113 50.5944 63.4796 50.3895 63.2752 50.1578C63.0749 49.926 62.9748 49.6507 62.9748 49.3299C62.9748 49.1375 63.0082 48.9616 63.0749 48.8001C63.1417 48.6408 63.2335 48.5063 63.3503 48.3945C63.4713 48.2786 63.6173 48.1917 63.7842 48.1296C63.951 48.0634 64.1367 48.0303 64.3432 48.0303C64.9147 48.0303 65.3903 48.2848 65.77 48.7919L65.3611 49.1147C65.2109 48.9119 65.0524 48.7629 64.8855 48.6677C64.7187 48.5684 64.5351 48.5187 64.3348 48.5187C64.0783 48.5187 63.8759 48.589 63.7258 48.7256C63.5756 48.8643 63.5005 49.0485 63.5005 49.2803C63.5005 49.5079 63.5756 49.6983 63.7258 49.8515C63.8801 50.0067 64.1367 50.1536 64.4934 50.2902C64.9481 50.4682 65.2819 50.6772 65.4946 50.9193C65.7116 51.1573 65.82 51.4409 65.82 51.772C65.82 51.9769 65.7804 52.1652 65.7032 52.3349C65.6302 52.5067 65.5238 52.6557 65.3862 52.7819C65.2527 52.904 65.0941 52.9972 64.9106 53.0634C64.727 53.1296 64.5226 53.1627 64.3015 53.1627Z" fill="#FEFEFE"/>
<path d="M70.3058 48.5929H68.6621V48.1045H72.4835V48.5929H70.8315V53.0879H70.3058V48.5929Z" fill="#FEFEFE"/>
<path d="M77.0885 47.9561H77.2386L79.1494 53.0885H78.5736L78.098 51.7806H76.1957L75.7201 53.0885H75.1777L77.0885 47.9561ZM77.9312 51.3004L77.1469 49.1398L76.3709 51.3004H77.9312Z" fill="#FEFEFE"/>
<path d="M83.4884 48.5929H81.8447V48.1045H85.6662V48.5929H84.0141V53.0879H83.4884V48.5929Z" fill="#FEFEFE"/>
<path d="M88.8125 48.1045H91.3991V48.5929H89.3382V50.2651H90.9068V50.7452H89.3382V52.6078H91.4324V53.0879H88.8125V48.1045Z" fill="#FEFEFE"/>
<path d="M100.163 47.9561H100.313L102.224 53.0885H101.648L101.172 51.7806H99.2699L98.7943 53.0885H98.252L100.163 47.9561ZM101.005 51.3004L100.221 49.1398L99.4451 51.3004H101.005Z" fill="#FEFEFE"/>
<path d="M107.553 53.1627C107.207 53.1627 106.881 53.0965 106.577 52.964C106.276 52.8316 106.013 52.6536 105.792 52.426C105.569 52.1942 105.392 51.9272 105.258 51.623C105.129 51.3146 105.066 50.9814 105.066 50.6213C105.066 50.2633 105.129 49.926 105.258 49.6114C105.392 49.2968 105.571 49.0237 105.801 48.7919C106.028 48.5559 106.295 48.3697 106.602 48.2372C106.906 48.1006 107.232 48.0303 107.578 48.0303C107.949 48.0303 108.298 48.111 108.621 48.2703C108.948 48.4256 109.23 48.6346 109.464 48.8995L109.063 49.2389C108.867 49.0133 108.642 48.8415 108.387 48.7256C108.131 48.6056 107.857 48.5435 107.57 48.5435C107.29 48.5435 107.031 48.5973 106.794 48.7008C106.56 48.8063 106.353 48.9491 106.176 49.1313C106.003 49.3134 105.867 49.5328 105.767 49.7852C105.671 50.0336 105.625 50.3047 105.625 50.5965C105.625 50.8904 105.671 51.1636 105.767 51.416C105.867 51.6644 106.003 51.8796 106.176 52.0617C106.353 52.2438 106.562 52.3887 106.802 52.4922C107.04 52.5977 107.303 52.6495 107.586 52.6495C107.897 52.6495 108.181 52.5895 108.437 52.4674C108.698 52.3411 108.915 52.1735 109.088 51.9624V50.8945H107.578V50.4144H109.614V52.0617C109.368 52.4156 109.067 52.6888 108.713 52.8813C108.356 53.0696 107.97 53.1627 107.553 53.1627Z" fill="#FEFEFE"/>
<path d="M113.023 48.1045H115.61V48.5929H113.549V50.2651H115.118V50.7452H113.549V52.6078H115.643V53.0879H113.023V48.1045Z" fill="#FEFEFE"/>
<path d="M119.525 49.2143V53.0885H119.016V47.9561H119.166L122.553 51.9792V48.1051H123.062V53.2375H122.912L119.525 49.2143Z" fill="#FEFEFE"/>
<path d="M128.841 53.1627C128.484 53.1627 128.157 53.0965 127.856 52.964C127.556 52.8316 127.293 52.6557 127.072 52.4342C126.849 52.2087 126.674 51.9417 126.546 51.6313C126.417 51.3167 126.354 50.9835 126.354 50.6296C126.354 50.2612 126.417 49.9177 126.546 49.6031C126.68 49.2886 126.859 49.0154 127.089 48.7836C127.316 48.5518 127.583 48.3697 127.89 48.2372C128.194 48.1006 128.52 48.0303 128.866 48.0303C129.237 48.0303 129.586 48.111 129.909 48.2703C130.236 48.4256 130.518 48.6346 130.752 48.8995L130.351 49.2389C130.155 49.0133 129.93 48.8415 129.675 48.7256C129.425 48.6056 129.15 48.5435 128.849 48.5435C128.57 48.5435 128.311 48.5973 128.073 48.7008C127.84 48.8001 127.635 48.945 127.464 49.1313C127.291 49.3134 127.155 49.5286 127.055 49.777C126.959 50.0212 126.914 50.2902 126.914 50.5882C126.914 50.8862 126.959 51.1636 127.055 51.416C127.155 51.6706 127.291 51.8879 127.464 52.07C127.642 52.248 127.85 52.3887 128.09 52.4922C128.328 52.5977 128.593 52.6495 128.883 52.6495C129.193 52.6495 129.477 52.5895 129.734 52.4674C129.988 52.3411 130.203 52.1735 130.376 51.9624L130.752 52.2852C130.518 52.5563 130.236 52.7716 129.909 52.9309C129.586 53.0862 129.229 53.1627 128.841 53.1627Z" fill="#FEFEFE"/>
<path d="M135.021 51.1591L133.485 48.1045H134.078L135.321 50.5714L136.589 48.1045H137.132L135.546 51.1591V53.0879H135.021V51.1591Z" fill="#FEFEFE"/>
</g>
<defs>
<clipPath id="clip0_17300_19184">
<rect width="183.429" height="60" fill="white" transform="translate(0.286133)"/>
</clipPath>
</defs>
</svg>
