<svg width="84" height="86" viewBox="0 0 84 86" fill="none" xmlns="http://www.w3.org/2000/svg">
<path d="M39.213 6.33176L39.1574 12.6821L38.3428 15.8295C36.1211 24.5682 33.8809 29.5115 30.5298 33.0477C26.7344 37.0282 21.9393 39.3055 12.3304 41.6753L8.60908 42.5825H4.3138H0V43.323V44.0636H4.38785C8.73868 44.0636 8.77571 44.0636 11.4603 44.7116C17.5699 46.1742 21.0321 47.3406 24.4387 49.0809C27.0677 50.4325 28.5303 51.5248 30.5113 53.5799C33.8624 57.0791 35.9915 61.7076 38.2873 70.5203L39.1389 73.7788L39.1945 79.7404L39.2685 85.7205H39.9906H40.7126L40.7682 79.7404L40.8237 73.7788L41.7124 70.3537C43.4527 63.6331 45.3597 58.8934 47.5814 55.7275C51.1176 50.7102 56.7274 47.6554 67.2989 44.9523L70.4464 44.1562L76.7967 44.1006L83.1285 44.0451V43.323V42.601L76.8893 42.5454L70.6315 42.4899L67.4841 41.6753C60.8745 39.9905 56.0979 38.1576 53.0245 36.1025C51.1916 34.8621 48.2849 31.9739 47.1741 30.2706C44.8413 26.6788 43.3231 22.6612 41.5458 15.4592L40.7311 12.1267V6.05405V-7.62939e-05H39.9906H39.2685L39.213 6.33176Z" fill="#F5F5F7"/>
</svg>
